<svg xmlns="http://www.w3.org/2000/svg" version="1.1" xmlns:xlink="http://www.w3.org/1999/xlink" xmlns:svgjs="http://svgjs.com/svgjs" width="512" height="512" x="0" y="0" viewBox="0 0 24 24" style="enable-background:new 0 0 512 512" xml:space="preserve" class=""><g><path fill="#000000" fill-rule="evenodd" d="M2.75 6A3.25 3.25 0 0 1 6 2.75h8a.75.75 0 0 0 0-1.5H6A4.75 4.75 0 0 0 1.25 6v12A4.75 4.75 0 0 0 6 22.75h12A4.75 4.75 0 0 0 22.75 18v-8a.75.75 0 0 0-1.5 0v3.51a2.002 2.002 0 0 0-.14-.104l-2.381-1.587a4 4 0 0 0-5.048.5L10.32 15.68a4 4 0 0 1-5.047.5L2.75 14.5zm17-4a.75.75 0 0 0-1.5 0v2.25H16a.75.75 0 0 0 0 1.5h2.25V8a.75.75 0 0 0 1.5 0V5.75H22a.75.75 0 0 0 0-1.5h-2.25zM8.5 11a2.5 2.5 0 1 0 0-5 2.5 2.5 0 0 0 0 5z" clip-rule="evenodd" data-original="#000000" class=""></path></g></svg>