<svg xmlns="http://www.w3.org/2000/svg" version="1.1" xmlns:xlink="http://www.w3.org/1999/xlink" xmlns:svgjs="http://svgjs.com/svgjs" width="512" height="512" x="0" y="0" viewBox="0 0 32 32" style="enable-background:new 0 0 512 512" xml:space="preserve" class=""><g><path d="M8 4v24a2 2 0 0 1-2 2H4a2 2 0 0 1-2-2V4a2 2 0 0 1 2-2h2a2 2 0 0 1 2 2zm22 22.81L23.79 3.63a2 2 0 0 0-2.45-1.41l-1.93.52A2 2 0 0 0 18 5.19l6.21 23.18a2 2 0 0 0 1.93 1.48 1.91 1.91 0 0 0 .52-.07l1.93-.52A2 2 0 0 0 30 26.81zM14 2h-2a2 2 0 0 0-2 2v24a2 2 0 0 0 2 2h2a2 2 0 0 0 2-2V4a2 2 0 0 0-2-2z" data-name="Layer 35" fill="#000000" data-original="#000000"></path></g></svg>