<svg xmlns="http://www.w3.org/2000/svg" version="1.1" xmlns:xlink="http://www.w3.org/1999/xlink" xmlns:svgjs="http://svgjs.com/svgjs" width="512" height="512" x="0" y="0" viewBox="0 0 682.667 682.667" style="enable-background:new 0 0 512 512" xml:space="preserve" class=""><g><defs><clipPath id="a" clipPathUnits="userSpaceOnUse"><path d="M0 512h512V0H0Z" fill="#000000" data-original="#000000"></path></clipPath></defs><g clip-path="url(#a)" transform="matrix(1.33333 0 0 -1.33333 0 682.667)"><path d="M0 0a191.783 191.783 0 0 0 49.719-20.638l15.688 15.69a32.121 32.121 0 0 0 22.727 9.415 32.116 32.116 0 0 0 22.718-9.415l22.718-22.719a32.11 32.11 0 0 0 9.415-22.718 32.113 32.113 0 0 0-9.415-22.726L117.881-88.8a191.838 191.838 0 0 0 20.638-49.719h22.147c17.746 0 32.134-14.388 32.134-32.133v-32.134c0-17.745-14.388-32.133-32.134-32.133h-22.147a191.831 191.831 0 0 0-20.638-49.718l15.689-15.689a32.117 32.117 0 0 0 9.415-22.727 32.11 32.11 0 0 0-9.415-22.718l-22.718-22.718a32.112 32.112 0 0 0-22.718-9.415 32.117 32.117 0 0 0-22.727 9.415L49.719-352.8A191.78 191.78 0 0 0 0-373.437v-22.148c0-17.746-14.388-32.134-32.134-32.134h-32.133c-17.746 0-32.133 14.388-32.133 32.134v22.148a191.78 191.78 0 0 0-49.719 20.637l-15.689-15.689a32.115 32.115 0 0 0-22.726-9.415 32.108 32.108 0 0 0-22.718 9.415l-22.719 22.718a32.114 32.114 0 0 0-9.415 22.718 32.121 32.121 0 0 0 9.415 22.727l15.69 15.689a191.796 191.796 0 0 0-20.638 49.718h-22.147c-17.746 0-32.134 14.388-32.134 32.133v32.134c0 17.745 14.388 32.133 32.134 32.133h22.147A191.803 191.803 0 0 0-214.281-88.8l-15.69 15.689a32.117 32.117 0 0 0-9.415 22.726 32.114 32.114 0 0 0 9.415 22.718l22.719 22.719a32.112 32.112 0 0 0 22.718 9.415 32.119 32.119 0 0 0 22.726-9.415l15.689-15.69A191.783 191.783 0 0 0-96.4 0v22.148c0 17.746 14.387 32.133 32.133 32.133h32.133C-14.388 54.281 0 39.894 0 22.148Z" style="stroke-width:30;stroke-linecap:round;stroke-linejoin:round;stroke-miterlimit:10;stroke-dasharray:none;stroke-opacity:1" transform="translate(304.2 442.719)" fill="none" stroke="#000000" stroke-width="30" stroke-linecap="round" stroke-linejoin="round" stroke-miterlimit="10" stroke-dasharray="none" stroke-opacity="" data-original="#000000"></path><path d="M0 0c53.205 0 96.4-43.195 96.4-96.4 0-53.204-43.195-96.4-96.4-96.4-53.205 0-96.4 43.196-96.4 96.4C-96.4-43.195-53.205 0 0 0Z" style="stroke-width:30;stroke-linecap:round;stroke-linejoin:round;stroke-miterlimit:10;stroke-dasharray:none;stroke-opacity:1" transform="translate(256 352.4)" fill="none" stroke="#000000" stroke-width="30" stroke-linecap="round" stroke-linejoin="round" stroke-miterlimit="10" stroke-dasharray="none" stroke-opacity="" data-original="#000000"></path></g></g></svg>